<svg width="16" height="16" viewBox="0 0 16 16" fill="none" xmlns="http://www.w3.org/2000/svg">
<circle cx="8" cy="8" r="8" fill="#2580C3"/>
<circle cx="8.0002" cy="8.00008" r="7.16231" fill="white"/>
<mask id="mask0" mask-type="alpha" maskUnits="userSpaceOnUse" x="0" y="0" width="16" height="16">
<circle cx="8.0002" cy="8.00008" r="7.16231" fill="#00A4FF"/>
</mask>
<g mask="url(#mask0)">
<path d="M4.49133 12.2164C4.03986 12.4832 3.05071 13.0167 2.70595 13.0167L1.78247 14.3712C2.78803 14.7611 5.0331 15.6394 5.96889 16.0334C7.13863 16.5259 8.86245 16.095 9.72436 16.0334C10.4139 15.9842 11.2019 15.6846 11.5097 15.5409L13.7876 13.8787L12.9257 13.0167C12.4332 12.75 11.3743 12.2164 11.0788 12.2164C10.7833 12.2164 10.0527 11.806 9.72436 11.6008V10.404L10.1292 9.60816L10.5621 8.95346L10.8972 8.33757C10.981 7.68132 11.0788 6.17071 11.0788 5.8752C11.0788 5.57969 10.6684 4.52077 10.4631 4.02826L9.82207 3.45066L9.19375 3.19933L8.45373 3.04321H7.63115L7.0854 3.26915L6.48501 3.5484C6.15334 3.72549 5.73103 4.3303 5.45147 4.89777C5.26423 5.27783 5.08646 6.49086 5.23011 6.92181V8.09155L5.66107 8.95346C5.90733 9.19972 6.39985 9.77843 6.39985 10.1232V11.6008L4.49133 12.2164Z" fill="#2580C3"/>
</g>
</svg>
